# xmcd CD database file
#
# Track frame offsets:
#	150
#	14044
#	26481
#	41516
#	55681
#	67381
#	81588
#	94028
#	109537
#	124972
#	137514
#	153124
#	166774
#	180963
#	194806
#	207513
#	221454
#	235089
#	247561
#	260084
#	272053
#
# Disc length: 3822 seconds
#
# Revision: 0
# Processed by: cddbd v1.5.2PL0 Copyright (c) Steve Scherf et al.
# Submitted via: CDex 1.70beta2
#
DISCID=270eec15
DTITLE=Various Artist - Battle Of Trombones CD1
DYEAR=2005
DGENRE=Jazz
TTITLE0=Kid Ory - Ory's Creole Trombone
TTITLE1=Miff Mole - Original Dixieland One-Step
TTITLE2=J. C. Higginbotham - On Revival Day
TTITLE3=Jack Teagarden - She's A Great, Great Girl
TTITLE4=Kid Ory - Muskrat Ramble
TTITLE5=J. C. Higginbotham - It Should Be You
TTITLE6=Miff Mole - Shim-Me-Sham-Wabble
TTITLE7=Jack Teagarden - Knockin' A Jug
TTITLE8=Miff Mole - Five PEnnies
TTITLE9=Glenn Miller - Bugle Call Blues
TTITLE10=J. C. Higginbotham - Higginbotham Blues
TTITLE11=Glenn Miller - Fan It
TTITLE12=Jack Teagarden - Basin Street Blues
TTITLE13=Tommy Dorsey - Three Moods
TTITLE14=George Brunies - Original Dixieland One-Step
TTITLE15=Dickie Wells - Minnie The Moucher's Wedding Day
TTITLE16=J. C. Higginbotham - Wild Party
TTITLE17=Jack Teagarden - At The Darktown Strutter's Ball
TTITLE18=George Brunies - Sensation
TTITLE19=Jack Teagarden - Nobody's Sweetheart
TTITLE20=Tommy Dorsey - Weary Blues
EXTD=YEAR: 2005
EXTT0=
EXTT1=
EXTT2=
EXTT3=
EXTT4=
EXTT5=
EXTT6=
EXTT7=
EXTT8=
EXTT9=
EXTT10=
EXTT11=
EXTT12=
EXTT13=
EXTT14=
EXTT15=
EXTT16=
EXTT17=
EXTT18=
EXTT19=
EXTT20=
PLAYORDER=
